<?xml version="1.0" encoding="utf-8"?>
<!-- Generator: Adobe Illustrator 22.1.0, SVG Export Plug-In . SVG Version: 6.00 Build 0)  -->
<svg version="1.1" id="Layer_1" xmlns="http://www.w3.org/2000/svg" xmlns:xlink="http://www.w3.org/1999/xlink" x="0px" y="0px"
	 viewBox="0 0 1000 200" style="enable-background:new 0 0 1000 200;" xml:space="preserve">
<style type="text/css">
	.st0{clip-path:url(#SVGID_2_);}
	.st1{fill:none;stroke:#000000;stroke-miterlimit:10;}
	.st2{fill:none;stroke:#000000;stroke-miterlimit:10;stroke-dasharray:9.8145,1.9629;}
</style>
<g>
	<defs>
		<rect id="SVGID_1_" width="1000" height="200"/>
	</defs>
	<clipPath id="SVGID_2_">
		<use xlink:href="#SVGID_1_"  style="overflow:visible;"/>
	</clipPath>
	<g class="st0">
		<g>
			<g>
				<line class="st1" x1="0" y1="0.5" x2="3.5" y2="-3"/>
				<line class="st2" x1="4.9" y1="-4.4" x2="195.8" y2="-195.3"/>
				<polyline class="st1" points="196.5,-196 200,-199.5 203.5,-196 				"/>
				<line class="st2" x1="204.9" y1="-194.6" x2="395.8" y2="-3.7"/>
				<polyline class="st1" points="396.5,-3 400,0.5 403.5,-3 				"/>
				<line class="st2" x1="404.9" y1="-4.4" x2="595.8" y2="-195.3"/>
				<polyline class="st1" points="596.5,-196 600,-199.5 603.5,-196 				"/>
				<line class="st2" x1="604.9" y1="-194.6" x2="795.8" y2="-3.7"/>
				<polyline class="st1" points="796.5,-3 800,0.5 803.5,-3 				"/>
				<line class="st2" x1="804.9" y1="-4.4" x2="995.8" y2="-195.3"/>
				<line class="st1" x1="996.5" y1="-196" x2="1000" y2="-199.5"/>
			</g>
		</g>
		<g>
			<g>
				<line class="st1" x1="0" y1="10.5" x2="3.5" y2="7"/>
				<line class="st2" x1="4.9" y1="5.6" x2="195.8" y2="-185.3"/>
				<polyline class="st1" points="196.5,-186 200,-189.5 203.5,-186 				"/>
				<line class="st2" x1="204.9" y1="-184.6" x2="395.8" y2="6.3"/>
				<polyline class="st1" points="396.5,7 400,10.5 403.5,7 				"/>
				<line class="st2" x1="404.9" y1="5.6" x2="595.8" y2="-185.3"/>
				<polyline class="st1" points="596.5,-186 600,-189.5 603.5,-186 				"/>
				<line class="st2" x1="604.9" y1="-184.6" x2="795.8" y2="6.3"/>
				<polyline class="st1" points="796.5,7 800,10.5 803.5,7 				"/>
				<line class="st2" x1="804.9" y1="5.6" x2="995.8" y2="-185.3"/>
				<line class="st1" x1="996.5" y1="-186" x2="1000" y2="-189.5"/>
			</g>
		</g>
		<g>
			<g>
				<line class="st1" x1="0" y1="20.5" x2="3.5" y2="17"/>
				<line class="st2" x1="4.9" y1="15.6" x2="195.8" y2="-175.3"/>
				<polyline class="st1" points="196.5,-176 200,-179.5 203.5,-176 				"/>
				<line class="st2" x1="204.9" y1="-174.6" x2="395.8" y2="16.3"/>
				<polyline class="st1" points="396.5,17 400,20.5 403.5,17 				"/>
				<line class="st2" x1="404.9" y1="15.6" x2="595.8" y2="-175.3"/>
				<polyline class="st1" points="596.5,-176 600,-179.5 603.5,-176 				"/>
				<line class="st2" x1="604.9" y1="-174.6" x2="795.8" y2="16.3"/>
				<polyline class="st1" points="796.5,17 800,20.5 803.5,17 				"/>
				<line class="st2" x1="804.9" y1="15.6" x2="995.8" y2="-175.3"/>
				<line class="st1" x1="996.5" y1="-176" x2="1000" y2="-179.5"/>
			</g>
		</g>
		<g>
			<g>
				<line class="st1" x1="0" y1="30.5" x2="3.5" y2="27"/>
				<line class="st2" x1="4.9" y1="25.6" x2="195.8" y2="-165.3"/>
				<polyline class="st1" points="196.5,-166 200,-169.5 203.5,-166 				"/>
				<line class="st2" x1="204.9" y1="-164.6" x2="395.8" y2="26.3"/>
				<polyline class="st1" points="396.5,27 400,30.5 403.5,27 				"/>
				<line class="st2" x1="404.9" y1="25.6" x2="595.8" y2="-165.3"/>
				<polyline class="st1" points="596.5,-166 600,-169.5 603.5,-166 				"/>
				<line class="st2" x1="604.9" y1="-164.6" x2="795.8" y2="26.3"/>
				<polyline class="st1" points="796.5,27 800,30.5 803.5,27 				"/>
				<line class="st2" x1="804.9" y1="25.6" x2="995.8" y2="-165.3"/>
				<line class="st1" x1="996.5" y1="-166" x2="1000" y2="-169.5"/>
			</g>
		</g>
		<g>
			<g>
				<line class="st1" x1="0" y1="40.5" x2="3.5" y2="37"/>
				<line class="st2" x1="4.9" y1="35.6" x2="195.8" y2="-155.3"/>
				<polyline class="st1" points="196.5,-156 200,-159.5 203.5,-156 				"/>
				<line class="st2" x1="204.9" y1="-154.6" x2="395.8" y2="36.3"/>
				<polyline class="st1" points="396.5,37 400,40.5 403.5,37 				"/>
				<line class="st2" x1="404.9" y1="35.6" x2="595.8" y2="-155.3"/>
				<polyline class="st1" points="596.5,-156 600,-159.5 603.5,-156 				"/>
				<line class="st2" x1="604.9" y1="-154.6" x2="795.8" y2="36.3"/>
				<polyline class="st1" points="796.5,37 800,40.5 803.5,37 				"/>
				<line class="st2" x1="804.9" y1="35.6" x2="995.8" y2="-155.3"/>
				<line class="st1" x1="996.5" y1="-156" x2="1000" y2="-159.5"/>
			</g>
		</g>
		<g>
			<g>
				<line class="st1" x1="0" y1="50.5" x2="3.5" y2="47"/>
				<line class="st2" x1="4.9" y1="45.6" x2="195.8" y2="-145.3"/>
				<polyline class="st1" points="196.5,-146 200,-149.5 203.5,-146 				"/>
				<line class="st2" x1="204.9" y1="-144.6" x2="395.8" y2="46.3"/>
				<polyline class="st1" points="396.5,47 400,50.5 403.5,47 				"/>
				<line class="st2" x1="404.9" y1="45.6" x2="595.8" y2="-145.3"/>
				<polyline class="st1" points="596.5,-146 600,-149.5 603.5,-146 				"/>
				<line class="st2" x1="604.9" y1="-144.6" x2="795.8" y2="46.3"/>
				<polyline class="st1" points="796.5,47 800,50.5 803.5,47 				"/>
				<line class="st2" x1="804.9" y1="45.6" x2="995.8" y2="-145.3"/>
				<line class="st1" x1="996.5" y1="-146" x2="1000" y2="-149.5"/>
			</g>
		</g>
		<g>
			<g>
				<line class="st1" x1="0" y1="60.5" x2="3.5" y2="57"/>
				<line class="st2" x1="4.9" y1="55.6" x2="195.8" y2="-135.3"/>
				<polyline class="st1" points="196.5,-136 200,-139.5 203.5,-136 				"/>
				<line class="st2" x1="204.9" y1="-134.6" x2="395.8" y2="56.3"/>
				<polyline class="st1" points="396.5,57 400,60.5 403.5,57 				"/>
				<line class="st2" x1="404.9" y1="55.6" x2="595.8" y2="-135.3"/>
				<polyline class="st1" points="596.5,-136 600,-139.5 603.5,-136 				"/>
				<line class="st2" x1="604.9" y1="-134.6" x2="795.8" y2="56.3"/>
				<polyline class="st1" points="796.5,57 800,60.5 803.5,57 				"/>
				<line class="st2" x1="804.9" y1="55.6" x2="995.8" y2="-135.3"/>
				<line class="st1" x1="996.5" y1="-136" x2="1000" y2="-139.5"/>
			</g>
		</g>
		<g>
			<g>
				<line class="st1" x1="0" y1="70.5" x2="3.5" y2="67"/>
				<line class="st2" x1="4.9" y1="65.6" x2="195.8" y2="-125.3"/>
				<polyline class="st1" points="196.5,-126 200,-129.5 203.5,-126 				"/>
				<line class="st2" x1="204.9" y1="-124.6" x2="395.8" y2="66.3"/>
				<polyline class="st1" points="396.5,67 400,70.5 403.5,67 				"/>
				<line class="st2" x1="404.9" y1="65.6" x2="595.8" y2="-125.3"/>
				<polyline class="st1" points="596.5,-126 600,-129.5 603.5,-126 				"/>
				<line class="st2" x1="604.9" y1="-124.6" x2="795.8" y2="66.3"/>
				<polyline class="st1" points="796.5,67 800,70.5 803.5,67 				"/>
				<line class="st2" x1="804.9" y1="65.6" x2="995.8" y2="-125.3"/>
				<line class="st1" x1="996.5" y1="-126" x2="1000" y2="-129.5"/>
			</g>
		</g>
		<g>
			<g>
				<line class="st1" x1="0" y1="80.5" x2="3.5" y2="77"/>
				<line class="st2" x1="4.9" y1="75.6" x2="195.8" y2="-115.3"/>
				<polyline class="st1" points="196.5,-116 200,-119.5 203.5,-116 				"/>
				<line class="st2" x1="204.9" y1="-114.6" x2="395.8" y2="76.3"/>
				<polyline class="st1" points="396.5,77 400,80.5 403.5,77 				"/>
				<line class="st2" x1="404.9" y1="75.6" x2="595.8" y2="-115.3"/>
				<polyline class="st1" points="596.5,-116 600,-119.5 603.5,-116 				"/>
				<line class="st2" x1="604.9" y1="-114.6" x2="795.8" y2="76.3"/>
				<polyline class="st1" points="796.5,77 800,80.5 803.5,77 				"/>
				<line class="st2" x1="804.9" y1="75.6" x2="995.8" y2="-115.3"/>
				<line class="st1" x1="996.5" y1="-116" x2="1000" y2="-119.5"/>
			</g>
		</g>
		<g>
			<g>
				<line class="st1" x1="0" y1="90.5" x2="3.5" y2="87"/>
				<line class="st2" x1="4.9" y1="85.6" x2="195.8" y2="-105.3"/>
				<polyline class="st1" points="196.5,-106 200,-109.5 203.5,-106 				"/>
				<line class="st2" x1="204.9" y1="-104.6" x2="395.8" y2="86.3"/>
				<polyline class="st1" points="396.5,87 400,90.5 403.5,87 				"/>
				<line class="st2" x1="404.9" y1="85.6" x2="595.8" y2="-105.3"/>
				<polyline class="st1" points="596.5,-106 600,-109.5 603.5,-106 				"/>
				<line class="st2" x1="604.9" y1="-104.6" x2="795.8" y2="86.3"/>
				<polyline class="st1" points="796.5,87 800,90.5 803.5,87 				"/>
				<line class="st2" x1="804.9" y1="85.6" x2="995.8" y2="-105.3"/>
				<line class="st1" x1="996.5" y1="-106" x2="1000" y2="-109.5"/>
			</g>
		</g>
		<g>
			<g>
				<line class="st1" x1="0" y1="100.5" x2="3.5" y2="97"/>
				<line class="st2" x1="4.9" y1="95.6" x2="195.8" y2="-95.3"/>
				<polyline class="st1" points="196.5,-96 200,-99.5 203.5,-96 				"/>
				<line class="st2" x1="204.9" y1="-94.6" x2="395.8" y2="96.3"/>
				<polyline class="st1" points="396.5,97 400,100.5 403.5,97 				"/>
				<line class="st2" x1="404.9" y1="95.6" x2="595.8" y2="-95.3"/>
				<polyline class="st1" points="596.5,-96 600,-99.5 603.5,-96 				"/>
				<line class="st2" x1="604.9" y1="-94.6" x2="795.8" y2="96.3"/>
				<polyline class="st1" points="796.5,97 800,100.5 803.5,97 				"/>
				<line class="st2" x1="804.9" y1="95.6" x2="995.8" y2="-95.3"/>
				<line class="st1" x1="996.5" y1="-96" x2="1000" y2="-99.5"/>
			</g>
		</g>
		<g>
			<g>
				<line class="st1" x1="0" y1="110.5" x2="3.5" y2="107"/>
				<line class="st2" x1="4.9" y1="105.6" x2="195.8" y2="-85.3"/>
				<polyline class="st1" points="196.5,-86 200,-89.5 203.5,-86 				"/>
				<line class="st2" x1="204.9" y1="-84.6" x2="395.8" y2="106.3"/>
				<polyline class="st1" points="396.5,107 400,110.5 403.5,107 				"/>
				<line class="st2" x1="404.9" y1="105.6" x2="595.8" y2="-85.3"/>
				<polyline class="st1" points="596.5,-86 600,-89.5 603.5,-86 				"/>
				<line class="st2" x1="604.9" y1="-84.6" x2="795.8" y2="106.3"/>
				<polyline class="st1" points="796.5,107 800,110.5 803.5,107 				"/>
				<line class="st2" x1="804.9" y1="105.6" x2="995.8" y2="-85.3"/>
				<line class="st1" x1="996.5" y1="-86" x2="1000" y2="-89.5"/>
			</g>
		</g>
		<g>
			<g>
				<line class="st1" x1="0" y1="120.5" x2="3.5" y2="117"/>
				<line class="st2" x1="4.9" y1="115.6" x2="195.8" y2="-75.3"/>
				<polyline class="st1" points="196.5,-76 200,-79.5 203.5,-76 				"/>
				<line class="st2" x1="204.9" y1="-74.6" x2="395.8" y2="116.3"/>
				<polyline class="st1" points="396.5,117 400,120.5 403.5,117 				"/>
				<line class="st2" x1="404.9" y1="115.6" x2="595.8" y2="-75.3"/>
				<polyline class="st1" points="596.5,-76 600,-79.5 603.5,-76 				"/>
				<line class="st2" x1="604.9" y1="-74.6" x2="795.8" y2="116.3"/>
				<polyline class="st1" points="796.5,117 800,120.5 803.5,117 				"/>
				<line class="st2" x1="804.9" y1="115.6" x2="995.8" y2="-75.3"/>
				<line class="st1" x1="996.5" y1="-76" x2="1000" y2="-79.5"/>
			</g>
		</g>
		<g>
			<g>
				<line class="st1" x1="0" y1="130.5" x2="3.5" y2="127"/>
				<line class="st2" x1="4.9" y1="125.6" x2="195.8" y2="-65.3"/>
				<polyline class="st1" points="196.5,-66 200,-69.5 203.5,-66 				"/>
				<line class="st2" x1="204.9" y1="-64.6" x2="395.8" y2="126.3"/>
				<polyline class="st1" points="396.5,127 400,130.5 403.5,127 				"/>
				<line class="st2" x1="404.9" y1="125.6" x2="595.8" y2="-65.3"/>
				<polyline class="st1" points="596.5,-66 600,-69.5 603.5,-66 				"/>
				<line class="st2" x1="604.9" y1="-64.6" x2="795.8" y2="126.3"/>
				<polyline class="st1" points="796.5,127 800,130.5 803.5,127 				"/>
				<line class="st2" x1="804.9" y1="125.6" x2="995.8" y2="-65.3"/>
				<line class="st1" x1="996.5" y1="-66" x2="1000" y2="-69.5"/>
			</g>
		</g>
		<g>
			<g>
				<line class="st1" x1="0" y1="140.5" x2="3.5" y2="137"/>
				<line class="st2" x1="4.9" y1="135.6" x2="195.8" y2="-55.3"/>
				<polyline class="st1" points="196.5,-56 200,-59.5 203.5,-56 				"/>
				<line class="st2" x1="204.9" y1="-54.6" x2="395.8" y2="136.3"/>
				<polyline class="st1" points="396.5,137 400,140.5 403.5,137 				"/>
				<line class="st2" x1="404.9" y1="135.6" x2="595.8" y2="-55.3"/>
				<polyline class="st1" points="596.5,-56 600,-59.5 603.5,-56 				"/>
				<line class="st2" x1="604.9" y1="-54.6" x2="795.8" y2="136.3"/>
				<polyline class="st1" points="796.5,137 800,140.5 803.5,137 				"/>
				<line class="st2" x1="804.9" y1="135.6" x2="995.8" y2="-55.3"/>
				<line class="st1" x1="996.5" y1="-56" x2="1000" y2="-59.5"/>
			</g>
		</g>
		<g>
			<g>
				<line class="st1" x1="0" y1="150.5" x2="3.5" y2="147"/>
				<line class="st2" x1="4.9" y1="145.6" x2="195.8" y2="-45.3"/>
				<polyline class="st1" points="196.5,-46 200,-49.5 203.5,-46 				"/>
				<line class="st2" x1="204.9" y1="-44.6" x2="395.8" y2="146.3"/>
				<polyline class="st1" points="396.5,147 400,150.5 403.5,147 				"/>
				<line class="st2" x1="404.9" y1="145.6" x2="595.8" y2="-45.3"/>
				<polyline class="st1" points="596.5,-46 600,-49.5 603.5,-46 				"/>
				<line class="st2" x1="604.9" y1="-44.6" x2="795.8" y2="146.3"/>
				<polyline class="st1" points="796.5,147 800,150.5 803.5,147 				"/>
				<line class="st2" x1="804.9" y1="145.6" x2="995.8" y2="-45.3"/>
				<line class="st1" x1="996.5" y1="-46" x2="1000" y2="-49.5"/>
			</g>
		</g>
		<g>
			<g>
				<line class="st1" x1="0" y1="160.5" x2="3.5" y2="157"/>
				<line class="st2" x1="4.9" y1="155.6" x2="195.8" y2="-35.3"/>
				<polyline class="st1" points="196.5,-36 200,-39.5 203.5,-36 				"/>
				<line class="st2" x1="204.9" y1="-34.6" x2="395.8" y2="156.3"/>
				<polyline class="st1" points="396.5,157 400,160.5 403.5,157 				"/>
				<line class="st2" x1="404.9" y1="155.6" x2="595.8" y2="-35.3"/>
				<polyline class="st1" points="596.5,-36 600,-39.5 603.5,-36 				"/>
				<line class="st2" x1="604.9" y1="-34.6" x2="795.8" y2="156.3"/>
				<polyline class="st1" points="796.5,157 800,160.5 803.5,157 				"/>
				<line class="st2" x1="804.9" y1="155.6" x2="995.8" y2="-35.3"/>
				<line class="st1" x1="996.5" y1="-36" x2="1000" y2="-39.5"/>
			</g>
		</g>
		<g>
			<g>
				<line class="st1" x1="0" y1="170.5" x2="3.5" y2="167"/>
				<line class="st2" x1="4.9" y1="165.6" x2="195.8" y2="-25.3"/>
				<polyline class="st1" points="196.5,-26 200,-29.5 203.5,-26 				"/>
				<line class="st2" x1="204.9" y1="-24.6" x2="395.8" y2="166.3"/>
				<polyline class="st1" points="396.5,167 400,170.5 403.5,167 				"/>
				<line class="st2" x1="404.9" y1="165.6" x2="595.8" y2="-25.3"/>
				<polyline class="st1" points="596.5,-26 600,-29.5 603.5,-26 				"/>
				<line class="st2" x1="604.9" y1="-24.6" x2="795.8" y2="166.3"/>
				<polyline class="st1" points="796.5,167 800,170.5 803.5,167 				"/>
				<line class="st2" x1="804.9" y1="165.6" x2="995.8" y2="-25.3"/>
				<line class="st1" x1="996.5" y1="-26" x2="1000" y2="-29.5"/>
			</g>
		</g>
		<g>
			<g>
				<line class="st1" x1="0" y1="180.5" x2="3.5" y2="177"/>
				<line class="st2" x1="4.9" y1="175.6" x2="195.8" y2="-15.3"/>
				<polyline class="st1" points="196.5,-16 200,-19.5 203.5,-16 				"/>
				<line class="st2" x1="204.9" y1="-14.6" x2="395.8" y2="176.3"/>
				<polyline class="st1" points="396.5,177 400,180.5 403.5,177 				"/>
				<line class="st2" x1="404.9" y1="175.6" x2="595.8" y2="-15.3"/>
				<polyline class="st1" points="596.5,-16 600,-19.5 603.5,-16 				"/>
				<line class="st2" x1="604.9" y1="-14.6" x2="795.8" y2="176.3"/>
				<polyline class="st1" points="796.5,177 800,180.5 803.5,177 				"/>
				<line class="st2" x1="804.9" y1="175.6" x2="995.8" y2="-15.3"/>
				<line class="st1" x1="996.5" y1="-16" x2="1000" y2="-19.5"/>
			</g>
		</g>
		<g>
			<g>
				<line class="st1" x1="0" y1="190.5" x2="3.5" y2="187"/>
				<line class="st2" x1="4.9" y1="185.6" x2="195.8" y2="-5.3"/>
				<polyline class="st1" points="196.5,-6 200,-9.5 203.5,-6 				"/>
				<line class="st2" x1="204.9" y1="-4.6" x2="395.8" y2="186.3"/>
				<polyline class="st1" points="396.5,187 400,190.5 403.5,187 				"/>
				<line class="st2" x1="404.9" y1="185.6" x2="595.8" y2="-5.3"/>
				<polyline class="st1" points="596.5,-6 600,-9.5 603.5,-6 				"/>
				<line class="st2" x1="604.9" y1="-4.6" x2="795.8" y2="186.3"/>
				<polyline class="st1" points="796.5,187 800,190.5 803.5,187 				"/>
				<line class="st2" x1="804.9" y1="185.6" x2="995.8" y2="-5.3"/>
				<line class="st1" x1="996.5" y1="-6" x2="1000" y2="-9.5"/>
			</g>
		</g>
		<g>
			<g>
				<line class="st1" x1="0" y1="200.5" x2="3.5" y2="197"/>
				<line class="st2" x1="4.9" y1="195.6" x2="195.8" y2="4.7"/>
				<polyline class="st1" points="196.5,4 200,0.5 203.5,4 				"/>
				<line class="st2" x1="204.9" y1="5.4" x2="395.8" y2="196.3"/>
				<polyline class="st1" points="396.5,197 400,200.5 403.5,197 				"/>
				<line class="st2" x1="404.9" y1="195.6" x2="595.8" y2="4.7"/>
				<polyline class="st1" points="596.5,4 600,0.5 603.5,4 				"/>
				<line class="st2" x1="604.9" y1="5.4" x2="795.8" y2="196.3"/>
				<polyline class="st1" points="796.5,197 800,200.5 803.5,197 				"/>
				<line class="st2" x1="804.9" y1="195.6" x2="995.8" y2="4.7"/>
				<line class="st1" x1="996.5" y1="4" x2="1000" y2="0.5"/>
			</g>
		</g>
		<g>
			<g>
				<line class="st1" x1="0" y1="210.5" x2="3.5" y2="207"/>
				<line class="st2" x1="4.9" y1="205.6" x2="195.8" y2="14.7"/>
				<polyline class="st1" points="196.5,14 200,10.5 203.5,14 				"/>
				<line class="st2" x1="204.9" y1="15.4" x2="395.8" y2="206.3"/>
				<polyline class="st1" points="396.5,207 400,210.5 403.5,207 				"/>
				<line class="st2" x1="404.9" y1="205.6" x2="595.8" y2="14.7"/>
				<polyline class="st1" points="596.5,14 600,10.5 603.5,14 				"/>
				<line class="st2" x1="604.9" y1="15.4" x2="795.8" y2="206.3"/>
				<polyline class="st1" points="796.5,207 800,210.5 803.5,207 				"/>
				<line class="st2" x1="804.9" y1="205.6" x2="995.8" y2="14.7"/>
				<line class="st1" x1="996.5" y1="14" x2="1000" y2="10.5"/>
			</g>
		</g>
		<g>
			<g>
				<line class="st1" x1="0" y1="220.5" x2="3.5" y2="217"/>
				<line class="st2" x1="4.9" y1="215.6" x2="195.8" y2="24.7"/>
				<polyline class="st1" points="196.5,24 200,20.5 203.5,24 				"/>
				<line class="st2" x1="204.9" y1="25.4" x2="395.8" y2="216.3"/>
				<polyline class="st1" points="396.5,217 400,220.5 403.5,217 				"/>
				<line class="st2" x1="404.9" y1="215.6" x2="595.8" y2="24.7"/>
				<polyline class="st1" points="596.5,24 600,20.5 603.5,24 				"/>
				<line class="st2" x1="604.9" y1="25.4" x2="795.8" y2="216.3"/>
				<polyline class="st1" points="796.5,217 800,220.5 803.5,217 				"/>
				<line class="st2" x1="804.9" y1="215.6" x2="995.8" y2="24.7"/>
				<line class="st1" x1="996.5" y1="24" x2="1000" y2="20.5"/>
			</g>
		</g>
		<g>
			<g>
				<line class="st1" x1="0" y1="230.5" x2="3.5" y2="227"/>
				<line class="st2" x1="4.9" y1="225.6" x2="195.8" y2="34.7"/>
				<polyline class="st1" points="196.5,34 200,30.5 203.5,34 				"/>
				<line class="st2" x1="204.9" y1="35.4" x2="395.8" y2="226.3"/>
				<polyline class="st1" points="396.5,227 400,230.5 403.5,227 				"/>
				<line class="st2" x1="404.9" y1="225.6" x2="595.8" y2="34.7"/>
				<polyline class="st1" points="596.5,34 600,30.5 603.5,34 				"/>
				<line class="st2" x1="604.9" y1="35.4" x2="795.8" y2="226.3"/>
				<polyline class="st1" points="796.5,227 800,230.5 803.5,227 				"/>
				<line class="st2" x1="804.9" y1="225.6" x2="995.8" y2="34.7"/>
				<line class="st1" x1="996.5" y1="34" x2="1000" y2="30.5"/>
			</g>
		</g>
		<g>
			<g>
				<line class="st1" x1="0" y1="240.5" x2="3.5" y2="237"/>
				<line class="st2" x1="4.9" y1="235.6" x2="195.8" y2="44.7"/>
				<polyline class="st1" points="196.5,44 200,40.5 203.5,44 				"/>
				<line class="st2" x1="204.9" y1="45.4" x2="395.8" y2="236.3"/>
				<polyline class="st1" points="396.5,237 400,240.5 403.5,237 				"/>
				<line class="st2" x1="404.9" y1="235.6" x2="595.8" y2="44.7"/>
				<polyline class="st1" points="596.5,44 600,40.5 603.5,44 				"/>
				<line class="st2" x1="604.9" y1="45.4" x2="795.8" y2="236.3"/>
				<polyline class="st1" points="796.5,237 800,240.5 803.5,237 				"/>
				<line class="st2" x1="804.9" y1="235.6" x2="995.8" y2="44.7"/>
				<line class="st1" x1="996.5" y1="44" x2="1000" y2="40.5"/>
			</g>
		</g>
		<g>
			<g>
				<line class="st1" x1="0" y1="250.5" x2="3.5" y2="247"/>
				<line class="st2" x1="4.9" y1="245.6" x2="195.8" y2="54.7"/>
				<polyline class="st1" points="196.5,54 200,50.5 203.5,54 				"/>
				<line class="st2" x1="204.9" y1="55.4" x2="395.8" y2="246.3"/>
				<polyline class="st1" points="396.5,247 400,250.5 403.5,247 				"/>
				<line class="st2" x1="404.9" y1="245.6" x2="595.8" y2="54.7"/>
				<polyline class="st1" points="596.5,54 600,50.5 603.5,54 				"/>
				<line class="st2" x1="604.9" y1="55.4" x2="795.8" y2="246.3"/>
				<polyline class="st1" points="796.5,247 800,250.5 803.5,247 				"/>
				<line class="st2" x1="804.9" y1="245.6" x2="995.8" y2="54.7"/>
				<line class="st1" x1="996.5" y1="54" x2="1000" y2="50.5"/>
			</g>
		</g>
		<g>
			<g>
				<line class="st1" x1="0" y1="260.5" x2="3.5" y2="257"/>
				<line class="st2" x1="4.9" y1="255.6" x2="195.8" y2="64.7"/>
				<polyline class="st1" points="196.5,64 200,60.5 203.5,64 				"/>
				<line class="st2" x1="204.9" y1="65.4" x2="395.8" y2="256.3"/>
				<polyline class="st1" points="396.5,257 400,260.5 403.5,257 				"/>
				<line class="st2" x1="404.9" y1="255.6" x2="595.8" y2="64.7"/>
				<polyline class="st1" points="596.5,64 600,60.5 603.5,64 				"/>
				<line class="st2" x1="604.9" y1="65.4" x2="795.8" y2="256.3"/>
				<polyline class="st1" points="796.5,257 800,260.5 803.5,257 				"/>
				<line class="st2" x1="804.9" y1="255.6" x2="995.8" y2="64.7"/>
				<line class="st1" x1="996.5" y1="64" x2="1000" y2="60.5"/>
			</g>
		</g>
		<g>
			<g>
				<line class="st1" x1="0" y1="270.5" x2="3.5" y2="267"/>
				<line class="st2" x1="4.9" y1="265.6" x2="195.8" y2="74.7"/>
				<polyline class="st1" points="196.5,74 200,70.5 203.5,74 				"/>
				<line class="st2" x1="204.9" y1="75.4" x2="395.8" y2="266.3"/>
				<polyline class="st1" points="396.5,267 400,270.5 403.5,267 				"/>
				<line class="st2" x1="404.9" y1="265.6" x2="595.8" y2="74.7"/>
				<polyline class="st1" points="596.5,74 600,70.5 603.5,74 				"/>
				<line class="st2" x1="604.9" y1="75.4" x2="795.8" y2="266.3"/>
				<polyline class="st1" points="796.5,267 800,270.5 803.5,267 				"/>
				<line class="st2" x1="804.9" y1="265.6" x2="995.8" y2="74.7"/>
				<line class="st1" x1="996.5" y1="74" x2="1000" y2="70.5"/>
			</g>
		</g>
		<g>
			<g>
				<line class="st1" x1="0" y1="280.5" x2="3.5" y2="277"/>
				<line class="st2" x1="4.9" y1="275.6" x2="195.8" y2="84.7"/>
				<polyline class="st1" points="196.5,84 200,80.5 203.5,84 				"/>
				<line class="st2" x1="204.9" y1="85.4" x2="395.8" y2="276.3"/>
				<polyline class="st1" points="396.5,277 400,280.5 403.5,277 				"/>
				<line class="st2" x1="404.9" y1="275.6" x2="595.8" y2="84.7"/>
				<polyline class="st1" points="596.5,84 600,80.5 603.5,84 				"/>
				<line class="st2" x1="604.9" y1="85.4" x2="795.8" y2="276.3"/>
				<polyline class="st1" points="796.5,277 800,280.5 803.5,277 				"/>
				<line class="st2" x1="804.9" y1="275.6" x2="995.8" y2="84.7"/>
				<line class="st1" x1="996.5" y1="84" x2="1000" y2="80.5"/>
			</g>
		</g>
		<g>
			<g>
				<line class="st1" x1="0" y1="290.5" x2="3.5" y2="287"/>
				<line class="st2" x1="4.9" y1="285.6" x2="195.8" y2="94.7"/>
				<polyline class="st1" points="196.5,94 200,90.5 203.5,94 				"/>
				<line class="st2" x1="204.9" y1="95.4" x2="395.8" y2="286.3"/>
				<polyline class="st1" points="396.5,287 400,290.5 403.5,287 				"/>
				<line class="st2" x1="404.9" y1="285.6" x2="595.8" y2="94.7"/>
				<polyline class="st1" points="596.5,94 600,90.5 603.5,94 				"/>
				<line class="st2" x1="604.9" y1="95.4" x2="795.8" y2="286.3"/>
				<polyline class="st1" points="796.5,287 800,290.5 803.5,287 				"/>
				<line class="st2" x1="804.9" y1="285.6" x2="995.8" y2="94.7"/>
				<line class="st1" x1="996.5" y1="94" x2="1000" y2="90.5"/>
			</g>
		</g>
		<g>
			<g>
				<line class="st1" x1="0" y1="300.5" x2="3.5" y2="297"/>
				<line class="st2" x1="4.9" y1="295.6" x2="195.8" y2="104.7"/>
				<polyline class="st1" points="196.5,104 200,100.5 203.5,104 				"/>
				<line class="st2" x1="204.9" y1="105.4" x2="395.8" y2="296.3"/>
				<polyline class="st1" points="396.5,297 400,300.5 403.5,297 				"/>
				<line class="st2" x1="404.9" y1="295.6" x2="595.8" y2="104.7"/>
				<polyline class="st1" points="596.5,104 600,100.5 603.5,104 				"/>
				<line class="st2" x1="604.9" y1="105.4" x2="795.8" y2="296.3"/>
				<polyline class="st1" points="796.5,297 800,300.5 803.5,297 				"/>
				<line class="st2" x1="804.9" y1="295.6" x2="995.8" y2="104.7"/>
				<line class="st1" x1="996.5" y1="104" x2="1000" y2="100.5"/>
			</g>
		</g>
		<g>
			<g>
				<line class="st1" x1="0" y1="310.5" x2="3.5" y2="307"/>
				<line class="st2" x1="4.9" y1="305.6" x2="195.8" y2="114.7"/>
				<polyline class="st1" points="196.5,114 200,110.5 203.5,114 				"/>
				<line class="st2" x1="204.9" y1="115.4" x2="395.8" y2="306.3"/>
				<polyline class="st1" points="396.5,307 400,310.5 403.5,307 				"/>
				<line class="st2" x1="404.9" y1="305.6" x2="595.8" y2="114.7"/>
				<polyline class="st1" points="596.5,114 600,110.5 603.5,114 				"/>
				<line class="st2" x1="604.9" y1="115.4" x2="795.8" y2="306.3"/>
				<polyline class="st1" points="796.5,307 800,310.5 803.5,307 				"/>
				<line class="st2" x1="804.9" y1="305.6" x2="995.8" y2="114.7"/>
				<line class="st1" x1="996.5" y1="114" x2="1000" y2="110.5"/>
			</g>
		</g>
		<g>
			<g>
				<line class="st1" x1="0" y1="320.5" x2="3.5" y2="317"/>
				<line class="st2" x1="4.9" y1="315.6" x2="195.8" y2="124.7"/>
				<polyline class="st1" points="196.5,124 200,120.5 203.5,124 				"/>
				<line class="st2" x1="204.9" y1="125.4" x2="395.8" y2="316.3"/>
				<polyline class="st1" points="396.5,317 400,320.5 403.5,317 				"/>
				<line class="st2" x1="404.9" y1="315.6" x2="595.8" y2="124.7"/>
				<polyline class="st1" points="596.5,124 600,120.5 603.5,124 				"/>
				<line class="st2" x1="604.9" y1="125.4" x2="795.8" y2="316.3"/>
				<polyline class="st1" points="796.5,317 800,320.5 803.5,317 				"/>
				<line class="st2" x1="804.9" y1="315.6" x2="995.8" y2="124.7"/>
				<line class="st1" x1="996.5" y1="124" x2="1000" y2="120.5"/>
			</g>
		</g>
		<g>
			<g>
				<line class="st1" x1="0" y1="330.5" x2="3.5" y2="327"/>
				<line class="st2" x1="4.9" y1="325.6" x2="195.8" y2="134.7"/>
				<polyline class="st1" points="196.5,134 200,130.5 203.5,134 				"/>
				<line class="st2" x1="204.9" y1="135.4" x2="395.8" y2="326.3"/>
				<polyline class="st1" points="396.5,327 400,330.5 403.5,327 				"/>
				<line class="st2" x1="404.9" y1="325.6" x2="595.8" y2="134.7"/>
				<polyline class="st1" points="596.5,134 600,130.5 603.5,134 				"/>
				<line class="st2" x1="604.9" y1="135.4" x2="795.8" y2="326.3"/>
				<polyline class="st1" points="796.5,327 800,330.5 803.5,327 				"/>
				<line class="st2" x1="804.9" y1="325.6" x2="995.8" y2="134.7"/>
				<line class="st1" x1="996.5" y1="134" x2="1000" y2="130.5"/>
			</g>
		</g>
		<g>
			<g>
				<line class="st1" x1="0" y1="340.5" x2="3.5" y2="337"/>
				<line class="st2" x1="4.9" y1="335.6" x2="195.8" y2="144.7"/>
				<polyline class="st1" points="196.5,144 200,140.5 203.5,144 				"/>
				<line class="st2" x1="204.9" y1="145.4" x2="395.8" y2="336.3"/>
				<polyline class="st1" points="396.5,337 400,340.5 403.5,337 				"/>
				<line class="st2" x1="404.9" y1="335.6" x2="595.8" y2="144.7"/>
				<polyline class="st1" points="596.5,144 600,140.5 603.5,144 				"/>
				<line class="st2" x1="604.9" y1="145.4" x2="795.8" y2="336.3"/>
				<polyline class="st1" points="796.5,337 800,340.5 803.5,337 				"/>
				<line class="st2" x1="804.9" y1="335.6" x2="995.8" y2="144.7"/>
				<line class="st1" x1="996.5" y1="144" x2="1000" y2="140.5"/>
			</g>
		</g>
		<g>
			<g>
				<line class="st1" x1="0" y1="350.5" x2="3.5" y2="347"/>
				<line class="st2" x1="4.9" y1="345.6" x2="195.8" y2="154.7"/>
				<polyline class="st1" points="196.5,154 200,150.5 203.5,154 				"/>
				<line class="st2" x1="204.9" y1="155.4" x2="395.8" y2="346.3"/>
				<polyline class="st1" points="396.5,347 400,350.5 403.5,347 				"/>
				<line class="st2" x1="404.9" y1="345.6" x2="595.8" y2="154.7"/>
				<polyline class="st1" points="596.5,154 600,150.5 603.5,154 				"/>
				<line class="st2" x1="604.9" y1="155.4" x2="795.8" y2="346.3"/>
				<polyline class="st1" points="796.5,347 800,350.5 803.5,347 				"/>
				<line class="st2" x1="804.9" y1="345.6" x2="995.8" y2="154.7"/>
				<line class="st1" x1="996.5" y1="154" x2="1000" y2="150.5"/>
			</g>
		</g>
		<g>
			<g>
				<line class="st1" x1="0" y1="360.5" x2="3.5" y2="357"/>
				<line class="st2" x1="4.9" y1="355.6" x2="195.8" y2="164.7"/>
				<polyline class="st1" points="196.5,164 200,160.5 203.5,164 				"/>
				<line class="st2" x1="204.9" y1="165.4" x2="395.8" y2="356.3"/>
				<polyline class="st1" points="396.5,357 400,360.5 403.5,357 				"/>
				<line class="st2" x1="404.9" y1="355.6" x2="595.8" y2="164.7"/>
				<polyline class="st1" points="596.5,164 600,160.5 603.5,164 				"/>
				<line class="st2" x1="604.9" y1="165.4" x2="795.8" y2="356.3"/>
				<polyline class="st1" points="796.5,357 800,360.5 803.5,357 				"/>
				<line class="st2" x1="804.9" y1="355.6" x2="995.8" y2="164.7"/>
				<line class="st1" x1="996.5" y1="164" x2="1000" y2="160.5"/>
			</g>
		</g>
		<g>
			<g>
				<line class="st1" x1="0" y1="370.5" x2="3.5" y2="367"/>
				<line class="st2" x1="4.9" y1="365.6" x2="195.8" y2="174.7"/>
				<polyline class="st1" points="196.5,174 200,170.5 203.5,174 				"/>
				<line class="st2" x1="204.9" y1="175.4" x2="395.8" y2="366.3"/>
				<polyline class="st1" points="396.5,367 400,370.5 403.5,367 				"/>
				<line class="st2" x1="404.9" y1="365.6" x2="595.8" y2="174.7"/>
				<polyline class="st1" points="596.5,174 600,170.5 603.5,174 				"/>
				<line class="st2" x1="604.9" y1="175.4" x2="795.8" y2="366.3"/>
				<polyline class="st1" points="796.5,367 800,370.5 803.5,367 				"/>
				<line class="st2" x1="804.9" y1="365.6" x2="995.8" y2="174.7"/>
				<line class="st1" x1="996.5" y1="174" x2="1000" y2="170.5"/>
			</g>
		</g>
		<g>
			<g>
				<line class="st1" x1="0" y1="380.5" x2="3.5" y2="377"/>
				<line class="st2" x1="4.9" y1="375.6" x2="195.8" y2="184.7"/>
				<polyline class="st1" points="196.5,184 200,180.5 203.5,184 				"/>
				<line class="st2" x1="204.9" y1="185.4" x2="395.8" y2="376.3"/>
				<polyline class="st1" points="396.5,377 400,380.5 403.5,377 				"/>
				<line class="st2" x1="404.9" y1="375.6" x2="595.8" y2="184.7"/>
				<polyline class="st1" points="596.5,184 600,180.5 603.5,184 				"/>
				<line class="st2" x1="604.9" y1="185.4" x2="795.8" y2="376.3"/>
				<polyline class="st1" points="796.5,377 800,380.5 803.5,377 				"/>
				<line class="st2" x1="804.9" y1="375.6" x2="995.8" y2="184.7"/>
				<line class="st1" x1="996.5" y1="184" x2="1000" y2="180.5"/>
			</g>
		</g>
		<g>
			<g>
				<line class="st1" x1="0" y1="390.5" x2="3.5" y2="387"/>
				<line class="st2" x1="4.9" y1="385.6" x2="195.8" y2="194.7"/>
				<polyline class="st1" points="196.5,194 200,190.5 203.5,194 				"/>
				<line class="st2" x1="204.9" y1="195.4" x2="395.8" y2="386.3"/>
				<polyline class="st1" points="396.5,387 400,390.5 403.5,387 				"/>
				<line class="st2" x1="404.9" y1="385.6" x2="595.8" y2="194.7"/>
				<polyline class="st1" points="596.5,194 600,190.5 603.5,194 				"/>
				<line class="st2" x1="604.9" y1="195.4" x2="795.8" y2="386.3"/>
				<polyline class="st1" points="796.5,387 800,390.5 803.5,387 				"/>
				<line class="st2" x1="804.9" y1="385.6" x2="995.8" y2="194.7"/>
				<line class="st1" x1="996.5" y1="194" x2="1000" y2="190.5"/>
			</g>
		</g>
		<g>
			<g>
				<line class="st1" x1="0" y1="400.5" x2="3.5" y2="397"/>
				<line class="st2" x1="4.9" y1="395.6" x2="195.8" y2="204.7"/>
				<polyline class="st1" points="196.5,204 200,200.5 203.5,204 				"/>
				<line class="st2" x1="204.9" y1="205.4" x2="395.8" y2="396.3"/>
				<polyline class="st1" points="396.5,397 400,400.5 403.5,397 				"/>
				<line class="st2" x1="404.9" y1="395.6" x2="595.8" y2="204.7"/>
				<polyline class="st1" points="596.5,204 600,200.5 603.5,204 				"/>
				<line class="st2" x1="604.9" y1="205.4" x2="795.8" y2="396.3"/>
				<polyline class="st1" points="796.5,397 800,400.5 803.5,397 				"/>
				<line class="st2" x1="804.9" y1="395.6" x2="995.8" y2="204.7"/>
				<line class="st1" x1="996.5" y1="204" x2="1000" y2="200.5"/>
			</g>
		</g>
	</g>
</g>
</svg>
