<svg id="asw-logo-white" xmlns="http://www.w3.org/2000/svg" viewBox="0 0 120 40">
  <defs>
    <style>
      .cls-1 {
        fill: #fff;
      }
    </style>
  </defs>
  <title>asw-logo-white</title>
  <path id="a" class="cls-1" d="M18.2,26c0,2.34-2.34,4.75-5.63,4.75a3.49,3.49,0,0,1-3.14-3.8c0-3.73,2.12-5.41,5.48-5.56l3.29-.14Zm10.16,9.87L28,33.71a29.76,29.76,0,0,1-.29-5.56V16.6c0-6.36-.44-14.91-14-14.91A37,37,0,0,0,3.8,3.3c-1.17.36-1.53,1.09-1.24,2.34l1,4.09A1.67,1.67,0,0,0,6,10.9,26.13,26.13,0,0,1,13.3,9.66c4.17,0,4.9,1.53,4.9,5.33l-5.48.3C3.73,15.8,0,20.62,0,26.91c0,6.94,3.29,11.4,10,11.4,4.46,0,7.74-1.68,9.57-4.31l.3,1.75c.21,1.32.8,2,2,2h4.75c1.32,0,1.9-.73,1.68-2"/>
  <path id="s" class="cls-1" d="M41.51,11.56a2.59,2.59,0,0,1,2.92-2.64,16.91,16.91,0,0,1,6,1.47c1,.36,1.83-.37,2.26-1.47l1.25-3.28c.36-1-.44-1.9-1.47-2.34a20,20,0,0,0-8.84-1.61C36,1.69,32,6.22,32,12.14c0,6.51,4.6,8.63,8.55,10.68C43.48,24.28,46,25.45,46,27.64c0,1.54-.95,2.63-3.29,2.63-2.71,0-5.41-1.09-8-2.05-1.17-.43-2,.3-2.34,1.39L31,33.71a1.85,1.85,0,0,0,1.24,2.34,30.92,30.92,0,0,0,10.9,2.26c9.14,0,12.35-5.85,12.35-11.18,0-6.65-4.24-9.14-8-11.11-3.07-1.61-5.92-2.85-5.92-4.46"/>
  <path id="w" class="cls-1" d="M107.23,5c.37-1.54-.29-2.42-1.39-2.42h-5.41a2.2,2.2,0,0,0-2.19,1.83L94.88,24c-.3,1.61-.88,6.88-1,8.41-.29-1.75-1-6.72-1.31-8.33L88.81,4.39a2.21,2.21,0,0,0-2.2-1.83H78a2.21,2.21,0,0,0-2.2,1.83L72,24.06c-.29,1.61-.95,6.8-1.17,8.33-.22-1.75-.73-6.8-.95-8.33L66.66,4.39a2.16,2.16,0,0,0-2.2-1.83H58c-1.1,0-1.75.88-1.39,2.42l7,31A2.28,2.28,0,0,0,66,37.8h8.7A2.23,2.23,0,0,0,77,36l4.09-19.52a61.76,61.76,0,0,0,1.1-8.18c.29,2.85.73,6,1.09,8.18L86.69,36A2.23,2.23,0,0,0,89,37.8h9.13A2.23,2.23,0,0,0,100.5,36Z"/>
  <path id="dot-b" class="cls-1" d="M110.64,33a4.68,4.68,0,1,0,4.68-4.68A4.69,4.69,0,0,0,110.64,33"/>
  <path id="dot-t" class="cls-1" d="M120,19.08a4.68,4.68,0,1,0-4.68,4.68A4.69,4.69,0,0,0,120,19.08"/>
  </svg>
