<?xml version="1.0" encoding="utf-8"?>
<!-- Generator: Adobe Illustrator 19.0.0, SVG Export Plug-In . SVG Version: 6.00 Build 0)  -->
<svg version="1.1" xmlns="http://www.w3.org/2000/svg" xmlns:xlink="http://www.w3.org/1999/xlink" x="0px" y="0px"
	 viewBox="0 0 100 100" style="enable-background:new 0 0 100 100;" xml:space="preserve">
<style type="text/css">
	.st0{fill:#FFFFFF;}
</style>
<g id="Layer_1">
</g>
<g id="Isolation_Mode">
	<path id="XMLID_2526_" class="st0" d="M94.5,16.7c-0.9-1.1-2.4-1.5-3.7-1l-82.9,30c-1.7,0.6-2.8,2.1-3,3.8c-0.2,1.7,0.6,3.4,2,4.4
		l11.9,8.1c1.1,0.8,2.6,0.9,3.9,0.2l25.7-13.6l-20,15c-0.9,0.7-1.5,1.8-1.5,3v13.9c0,1.4,0.8,2.7,2,3.4c1.3,0.7,2.8,0.6,4-0.2l9-6
		l8.9,6c0.8,0.5,1.7,0.8,2.6,0.8c0.3,0,0.6,0,0.9-0.1c1.2-0.3,2.3-1,3-2.1l37.5-61.9C95.4,19.3,95.3,17.7,94.5,16.7z M53,79
		l-9.2-6.3c-0.6-0.4-1.4-0.7-2.1-0.7c-0.7,0-1.4,0.2-2.1,0.6L32,77.8V67.3l35.4-26.4c1.6-1.2,2-3.3,0.9-5c-1.1-1.7-3.2-2.2-4.9-1.3
		L20.9,57l-10-6.8l76.4-27.6L53,79z"/>
</g>
</svg>
