<?xml version="1.0" encoding="utf-8"?>
<!-- Generator: Adobe Illustrator 19.0.0, SVG Export Plug-In . SVG Version: 6.00 Build 0)  -->
<svg version="1.1" xmlns="http://www.w3.org/2000/svg" xmlns:xlink="http://www.w3.org/1999/xlink" x="0px" y="0px"
	 viewBox="0 0 100 100" style="enable-background:new 0 0 100 100;" xml:space="preserve">
<style type="text/css">
	.st0{fill:#FFFFFF;}
</style>
<g id="Layer_1">
</g>
<g id="Isolation_Mode">
	<g id="XMLID_2519_">
		<path id="Facebook_Places_4_" class="st0" d="M72.8,32.6c-0.2-0.9-0.7-1.9-1.1-2.8c-4.4-10.7-14.1-14.5-22-14.5
			c-10.5,0-22,7-23.6,21.5v3c0,0.1,0,1.2,0.1,1.8c0.9,6.9,6.3,14.3,10.4,21.2c4.4,7.4,8.9,14.7,13.4,22c2.8-4.8,5.5-9.6,8.3-14.2
			c0.7-1.4,1.6-2.7,2.3-4c0.5-0.9,1.4-1.7,1.9-2.5c4.4-8,11.4-16.1,11.4-24.1v-3.3C73.9,35.8,72.8,32.8,72.8,32.6z M49.9,47.4
			c-3.1,0-6.5-1.5-8.1-5.8c-0.2-0.7-0.2-2-0.2-2.2v-1.9c0-5.4,4.6-7.9,8.6-7.9c4.9,0,8.8,3.9,8.8,8.9C58.9,43.5,54.8,47.4,49.9,47.4
			z"/>
	</g>
</g>
</svg>
