<?xml version="1.0" encoding="utf-8"?>
<!-- Generator: Adobe Illustrator 19.0.0, SVG Export Plug-In . SVG Version: 6.00 Build 0)  -->
<svg version="1.1" xmlns="http://www.w3.org/2000/svg" xmlns:xlink="http://www.w3.org/1999/xlink" x="0px" y="0px"
	 viewBox="0 0 100 100" style="enable-background:new 0 0 100 100;" xml:space="preserve">
<g id="Layer_1">
</g>
<g id="Capa_1">
	<g id="XMLID_4296_">
		<path id="XMLID_4349_" d="M67.2,15.5l-8.9,0c-10.1,0-16.5,6.7-16.5,17v7.8h-9c-0.8,0-1.4,0.6-1.4,1.4v11.3c0,0.8,0.6,1.4,1.4,1.4
			h9v28.6c0,0.8,0.6,1.4,1.4,1.4h11.7c0.8,0,1.4-0.6,1.4-1.4V54.5h10.5c0.8,0,1.4-0.6,1.4-1.4l0-11.3c0-0.4-0.1-0.7-0.4-1
			c-0.3-0.3-0.6-0.4-1-0.4H56.3v-6.6c0-3.2,0.8-4.8,4.9-4.8l6,0c0.8,0,1.4-0.6,1.4-1.4V16.9C68.7,16.1,68,15.5,67.2,15.5z"/>
	</g>
</g>
</svg>
