<?xml version="1.0" encoding="utf-8"?>
<!-- Generator: Adobe Illustrator 19.0.0, SVG Export Plug-In . SVG Version: 6.00 Build 0)  -->
<svg version="1.1" xmlns="http://www.w3.org/2000/svg" xmlns:xlink="http://www.w3.org/1999/xlink" x="0px" y="0px"
	 viewBox="0 0 100 100" style="enable-background:new 0 0 100 100;" xml:space="preserve">
<g id="Layer_1">
</g>
<g id="Isolation_Mode">
	<g id="XMLID_4354_">
		<path id="LinkedIn_1_" d="M85.2,57.6v26H70.1V59.4c0-6.1-2.2-10.3-7.6-10.3c-4.2,0-6.6,2.8-7.7,5.5c-0.4,1-0.5,2.3-0.5,3.7v25.3
			H39.1c0,0,0.2-41.1,0-45.4h15.1v6.4c0,0-0.1,0.1-0.1,0.1h0.1v-0.1c2-3.1,5.6-7.5,13.6-7.5C77.8,37.2,85.2,43.7,85.2,57.6z
			 M23.3,16.4c-5.2,0-8.5,3.4-8.5,7.8c0,4.4,3.3,7.8,8.3,7.8h0.1c5.3,0,8.5-3.5,8.5-7.8C31.7,19.8,28.5,16.4,23.3,16.4z M15.7,83.6
			h15.1V38.2H15.7V83.6z"/>
	</g>
</g>
</svg>
