<?xml version="1.0" encoding="utf-8"?>
<!-- Generator: Adobe Illustrator 19.0.0, SVG Export Plug-In . SVG Version: 6.00 Build 0)  -->
<svg version="1.1" id="Layer_1" xmlns="http://www.w3.org/2000/svg" xmlns:xlink="http://www.w3.org/1999/xlink" x="0px" y="0px"
	 viewBox="0 0 564.3 195.3" style="enable-background:new 0 0 564.3 195.3;" xml:space="preserve">
<style type="text/css">
	.st0{fill:#FFFFFF;}
</style>
<g>
	<g>
		<rect x="353.2" y="183.2" class="st0" width="22.2" height="3.8"/>
		<rect x="252.5" y="183.2" class="st0" width="42" height="3.8"/>
		<rect x="8.5" y="183.2" class="st0" width="25.4" height="3.8"/>
		<rect x="172.4" y="183.2" class="st0" width="21.5" height="3.8"/>
		<polygon class="st0" points="555.2,187.1 555.2,183.2 541.5,183.2 544.8,187.1 		"/>
		<polygon class="st0" points="434.1,183.2 434.1,187.1 492.1,187.1 488.8,183.2 		"/>
		<rect x="172.4" y="163.9" class="st0" width="21.5" height="3.8"/>
		<polygon class="st0" points="555.2,167.7 555.2,163.9 524.9,163.9 528.2,167.7 		"/>
		<polygon class="st0" points="434.1,167.7 475.5,167.7 472.2,163.9 434.1,163.9 		"/>
		<rect x="8.5" y="163.9" class="st0" width="25.4" height="3.8"/>
		<rect x="252.5" y="163.9" class="st0" width="42" height="3.8"/>
		<rect x="353.2" y="163.9" class="st0" width="22.2" height="3.8"/>
		<rect x="8.5" y="144.5" class="st0" width="25.4" height="3.8"/>
		<rect x="252.5" y="144.5" class="st0" width="42" height="3.8"/>
		<polygon class="st0" points="458.9,148.4 455.6,144.5 434.1,144.5 434.1,148.4 		"/>
		<rect x="353.2" y="144.5" class="st0" width="22.2" height="3.8"/>
		<rect x="172.4" y="144.5" class="st0" width="21.5" height="3.8"/>
		<polygon class="st0" points="555.2,148.4 555.2,144.5 508.3,144.5 511.6,148.4 		"/>
		<rect x="172.4" y="125.2" class="st0" width="21.5" height="3.8"/>
		<rect x="8.5" y="125.2" class="st0" width="25.4" height="3.8"/>
		<rect x="353.2" y="125.2" class="st0" width="22.2" height="3.8"/>
		<rect x="529.1" y="125.2" class="st0" width="26.2" height="3.8"/>
		<rect x="529.1" y="105.8" class="st0" width="26.2" height="3.8"/>
		<rect x="353.2" y="105.8" class="st0" width="22.2" height="3.8"/>
		<rect x="92.5" y="105.8" class="st0" width="101.3" height="3.8"/>
		<rect x="8.5" y="105.8" class="st0" width="25.4" height="3.8"/>
		<rect x="92.5" y="86.5" class="st0" width="101.3" height="3.8"/>
		<rect x="353.2" y="86.5" class="st0" width="22.2" height="3.8"/>
		<rect x="529.1" y="86.5" class="st0" width="26.2" height="3.8"/>
		<rect x="8.5" y="86.5" class="st0" width="25.4" height="3.8"/>
		<rect x="353.2" y="67.1" class="st0" width="22.2" height="3.8"/>
		<rect x="92.5" y="67.1" class="st0" width="101.3" height="3.8"/>
		<rect x="8.5" y="67.1" class="st0" width="25.4" height="3.8"/>
		<rect x="529.1" y="67.1" class="st0" width="26.2" height="3.8"/>
		<rect x="434.1" y="67.1" class="st0" width="40.8" height="3.8"/>
		<rect x="92.5" y="47.8" class="st0" width="101.3" height="3.8"/>
		<rect x="252.5" y="47.8" class="st0" width="42" height="3.8"/>
		<rect x="353.2" y="47.8" class="st0" width="22.2" height="3.8"/>
		<rect x="8.5" y="47.8" class="st0" width="25.4" height="3.8"/>
		<rect x="529.1" y="47.8" class="st0" width="26.2" height="3.8"/>
		<rect x="8.5" y="28.4" class="st0" width="25.4" height="3.8"/>
		<rect x="529.1" y="28.4" class="st0" width="26.2" height="3.8"/>
		<rect x="353.2" y="28.4" class="st0" width="22.2" height="3.8"/>
		<rect x="252.5" y="28.4" class="st0" width="42" height="3.8"/>
		<rect x="92.5" y="28.4" class="st0" width="101.3" height="3.8"/>
		<rect x="8.5" y="9.1" class="st0" width="25.4" height="3.8"/>
		<rect x="353.2" y="9.1" class="st0" width="22.2" height="3.8"/>
		<rect x="529.1" y="9.1" class="st0" width="26.2" height="3.8"/>
		<rect x="252.5" y="9.1" class="st0" width="42" height="3.8"/>
		<rect x="92.5" y="9.1" class="st0" width="101.3" height="3.8"/>
	</g>
	<g>
		<rect x="33.8" y="71" class="st0" width="58.7" height="15.5"/>
		<rect x="33.8" y="90.3" class="st0" width="58.7" height="15.5"/>
		<rect x="33.8" y="51.6" class="st0" width="58.7" height="15.5"/>
		<rect x="33.8" y="12.9" class="st0" width="58.7" height="15.5"/>
		<rect x="33.8" y="32.3" class="st0" width="58.7" height="15.5"/>
		<rect x="33.8" y="109.7" class="st0" width="58.7" height="15.5"/>
		<rect x="33.8" y="167.7" class="st0" width="138.5" height="15.5"/>
		<rect x="33.8" y="129" class="st0" width="138.5" height="15.5"/>
		<rect x="33.8" y="148.4" class="st0" width="138.5" height="15.5"/>
		<polygon class="st0" points="193.8,125.2 252.5,125.2 294.5,125.2 353.2,125.2 353.2,109.7 193.8,109.7 		"/>
		<rect x="193.8" y="90.3" class="st0" width="159.3" height="15.5"/>
		<rect x="375.4" y="148.4" class="st0" width="58.7" height="15.5"/>
		<rect x="375.4" y="167.7" class="st0" width="58.7" height="15.5"/>
		<rect x="375.4" y="71" class="st0" width="58.7" height="15.5"/>
		<rect x="375.4" y="109.7" class="st0" width="153.7" height="15.5"/>
		<rect x="474.8" y="71" class="st0" width="54.2" height="15.5"/>
		<polygon class="st0" points="472.2,163.9 524.9,163.9 511.6,148.4 458.9,148.4 		"/>
		<polygon class="st0" points="375.4,144.5 434.1,144.5 434.1,129 442.3,129 455.6,144.5 508.3,144.5 495,129 529.1,129 375.4,129 
					"/>
		<rect x="375.4" y="51.6" class="st0" width="58.7" height="15.5"/>
		<polygon class="st0" points="488.8,183.2 541.5,183.2 528.2,167.7 475.5,167.7 		"/>
		<rect x="375.4" y="32.3" class="st0" width="153.7" height="15.5"/>
		<rect x="474.8" y="51.6" class="st0" width="54.2" height="15.5"/>
		<rect x="375.4" y="90.3" class="st0" width="153.7" height="15.5"/>
		<rect x="294.5" y="148.4" class="st0" width="58.7" height="15.5"/>
		<rect x="294.5" y="129" class="st0" width="58.7" height="15.5"/>
		<rect x="193.8" y="129" class="st0" width="58.7" height="15.5"/>
		<rect x="193.8" y="148.4" class="st0" width="58.7" height="15.5"/>
		<rect x="193.8" y="32.3" class="st0" width="58.7" height="15.5"/>
		<rect x="294.5" y="32.3" class="st0" width="58.7" height="15.5"/>
		<polygon class="st0" points="252.5,71 193.8,71 193.8,86.5 353.2,86.5 353.2,71 294.5,71 		"/>
		<rect x="294.5" y="51.6" class="st0" width="58.7" height="15.5"/>
		<rect x="193.8" y="12.9" class="st0" width="58.7" height="15.5"/>
		<rect x="294.5" y="12.9" class="st0" width="58.7" height="15.5"/>
		<rect x="294.5" y="167.7" class="st0" width="58.7" height="15.5"/>
		<rect x="193.8" y="167.7" class="st0" width="58.7" height="15.5"/>
		<rect x="193.8" y="51.6" class="st0" width="58.7" height="15.5"/>
		<rect x="375.4" y="12.9" class="st0" width="153.7" height="15.5"/>
	</g>
</g>
</svg>
